<svg width="16" height="21" viewBox="0 0 16 21" fill="none" xmlns="http://www.w3.org/2000/svg">
<path fill-rule="evenodd" clip-rule="evenodd" d="M8 2.5C6.34315 2.5 5 3.84315 5 5.5C5 7.15685 6.34315 8.5 8 8.5C9.65685 8.5 11 7.15685 11 5.5C11 3.84315 9.65685 2.5 8 2.5ZM3 5.5C3 2.73858 5.23858 0.5 8 0.5C10.7614 0.5 13 2.73858 13 5.5C13 8.26142 10.7614 10.5 8 10.5C5.23858 10.5 3 8.26142 3 5.5ZM2.08296 18.5H13.917C13.441 15.6623 10.973 13.5 8 13.5C5.027 13.5 2.55904 15.6623 2.08296 18.5ZM0 19.5C0 15.0817 3.58172 11.5 8 11.5C12.4183 11.5 16 15.0817 16 19.5C16 20.0523 15.5523 20.5 15 20.5H1C0.447715 20.5 0 20.0523 0 19.5Z" fill="#344563"/>
</svg>
